<svg id="alihan-seyhun-logo" xmlns="http://www.w3.org/2000/svg" width="397.271" height="136.579" viewBox="0 0 397.271 136.579">
  <path id="Path_1" data-name="Path 1" d="M54.834-56.721a3.142,3.142,0,0,1,2.386,1,3.424,3.424,0,0,1,.944,2.442V-3.33a3.2,3.2,0,0,1-1,2.331,3.2,3.2,0,0,1-2.331,1,3.1,3.1,0,0,1-2.442-1A3.4,3.4,0,0,1,51.5-3.33V-16.539l1.887-.888A13.359,13.359,0,0,1,51.671-11.1a22.91,22.91,0,0,1-4.718,5.994A24.172,24.172,0,0,1,39.9-.611,22.343,22.343,0,0,1,31.08,1.11,23.9,23.9,0,0,1,17.7-2.775,26.7,26.7,0,0,1,8.381-13.431,33.532,33.532,0,0,1,5-28.638,32.564,32.564,0,0,1,8.436-43.9,26.7,26.7,0,0,1,17.76-54.279a23.942,23.942,0,0,1,13.209-3.774A23.835,23.835,0,0,1,39.9-56.388a23.266,23.266,0,0,1,7.271,4.551,21.738,21.738,0,0,1,4.884,6.6,17.7,17.7,0,0,1,1.776,7.715L51.5-39.183v-14.1a3.545,3.545,0,0,1,.888-2.442A3.1,3.1,0,0,1,54.834-56.721ZM31.746-5.106A18.293,18.293,0,0,0,42.18-8.158a20.84,20.84,0,0,0,7.16-8.436,27.259,27.259,0,0,0,2.608-12.044A25.948,25.948,0,0,0,49.34-40.4a21.518,21.518,0,0,0-7.16-8.325,18.058,18.058,0,0,0-10.434-3.108,18.616,18.616,0,0,0-10.379,3,20.514,20.514,0,0,0-7.215,8.214,26.459,26.459,0,0,0-2.609,11.988A27.758,27.758,0,0,0,14.1-16.595a20.289,20.289,0,0,0,7.16,8.436A18.557,18.557,0,0,0,31.746-5.106ZM94.017-3.33a3.2,3.2,0,0,1-1,2.331,3.2,3.2,0,0,1-2.331,1A3.142,3.142,0,0,1,88.3-1a3.288,3.288,0,0,1-.944-2.331V-78.81a3.2,3.2,0,0,1,1-2.331,3.2,3.2,0,0,1,2.331-1,3.142,3.142,0,0,1,2.386,1,3.288,3.288,0,0,1,.944,2.331Zm35.742,0a3.2,3.2,0,0,1-1,2.331,3.2,3.2,0,0,1-2.331,1,3.142,3.142,0,0,1-2.386-1A3.288,3.288,0,0,1,123.1-3.33V-54.39a3.288,3.288,0,0,1,.944-2.331,3.142,3.142,0,0,1,2.386-1,3.142,3.142,0,0,1,2.387,1,3.288,3.288,0,0,1,.943,2.331Zm-3.33-61.827a5.065,5.065,0,0,1-3.5-1.055,3.906,3.906,0,0,1-1.165-3.052v-1.11a3.733,3.733,0,0,1,1.276-3.053,5.329,5.329,0,0,1,3.5-1.054,4.708,4.708,0,0,1,3.274,1.054,3.906,3.906,0,0,1,1.165,3.053v1.11a3.906,3.906,0,0,1-1.165,3.052A4.884,4.884,0,0,1,126.429-65.157Zm57.609,7.992q6.993,0,11.322,3a17.586,17.586,0,0,1,6.382,8.1A30.087,30.087,0,0,1,203.8-34.743V-3.33A3.2,3.2,0,0,1,202.8-1a3.2,3.2,0,0,1-2.331,1,3.1,3.1,0,0,1-2.442-1,3.4,3.4,0,0,1-.888-2.331V-34.743a23.043,23.043,0,0,0-1.387-8.214,12.176,12.176,0,0,0-4.5-5.827,14.317,14.317,0,0,0-8.325-2.164,18.862,18.862,0,0,0-8.824,2.164,18.348,18.348,0,0,0-6.716,5.827,14.031,14.031,0,0,0-2.553,8.214V-3.33a3.2,3.2,0,0,1-1,2.331,3.2,3.2,0,0,1-2.331,1,3.1,3.1,0,0,1-2.442-1,3.4,3.4,0,0,1-.888-2.331V-78.81a3.288,3.288,0,0,1,.943-2.331,3.142,3.142,0,0,1,2.387-1,3.142,3.142,0,0,1,2.387,1,3.288,3.288,0,0,1,.943,2.331v35.964l-2.553,3.885a14.942,14.942,0,0,1,2.164-6.715A22.962,22.962,0,0,1,169.5-51.56a24.971,24.971,0,0,1,6.882-4.107A20.6,20.6,0,0,1,184.038-57.165Zm94.35.444a3.142,3.142,0,0,1,2.386,1,3.424,3.424,0,0,1,.944,2.442V-3.33a3.2,3.2,0,0,1-1,2.331,3.2,3.2,0,0,1-2.331,1,3.1,3.1,0,0,1-2.442-1,3.4,3.4,0,0,1-.888-2.331V-16.539l1.887-.888a13.359,13.359,0,0,1-1.72,6.327,22.909,22.909,0,0,1-4.717,5.994,24.173,24.173,0,0,1-7.048,4.5,22.343,22.343,0,0,1-8.825,1.721,23.9,23.9,0,0,1-13.376-3.885,26.7,26.7,0,0,1-9.324-10.656,33.532,33.532,0,0,1-3.385-15.207A32.564,32.564,0,0,1,231.99-43.9a26.7,26.7,0,0,1,9.324-10.379,23.942,23.942,0,0,1,13.209-3.774,23.835,23.835,0,0,1,8.936,1.665,23.266,23.266,0,0,1,7.27,4.551,21.738,21.738,0,0,1,4.884,6.6,17.7,17.7,0,0,1,1.776,7.715l-2.331-1.665v-14.1a3.545,3.545,0,0,1,.888-2.442A3.1,3.1,0,0,1,278.388-56.721ZM255.3-5.106a18.293,18.293,0,0,0,10.434-3.052,20.839,20.839,0,0,0,7.16-8.436A27.259,27.259,0,0,0,275.5-28.638,25.948,25.948,0,0,0,272.894-40.4a21.518,21.518,0,0,0-7.16-8.325A18.058,18.058,0,0,0,255.3-51.837a18.616,18.616,0,0,0-10.379,3,20.514,20.514,0,0,0-7.215,8.214A26.459,26.459,0,0,0,235.1-28.638a27.758,27.758,0,0,0,2.553,12.044,20.289,20.289,0,0,0,7.16,8.436A18.557,18.557,0,0,0,255.3-5.106ZM337-58.053q7.326,0,11.71,2.941a16.518,16.518,0,0,1,6.327,7.992,30.839,30.839,0,0,1,1.943,11.156V-3.33a3.2,3.2,0,0,1-1,2.331,3.2,3.2,0,0,1-2.331,1A3.1,3.1,0,0,1,351.2-1a3.4,3.4,0,0,1-.888-2.331v-32.3a21.929,21.929,0,0,0-1.443-8.1,12.486,12.486,0,0,0-4.717-5.883,15.062,15.062,0,0,0-8.6-2.22,19.353,19.353,0,0,0-9.046,2.22,19.58,19.58,0,0,0-6.938,5.883,13.463,13.463,0,0,0-2.664,8.1v32.3a3.2,3.2,0,0,1-1,2.331,3.2,3.2,0,0,1-2.331,1,3.1,3.1,0,0,1-2.442-1,3.4,3.4,0,0,1-.888-2.331V-53.058a3.288,3.288,0,0,1,.943-2.331,3.142,3.142,0,0,1,2.387-1,3.142,3.142,0,0,1,2.387,1,3.288,3.288,0,0,1,.944,2.331v9.324l-2.553,4a14.405,14.405,0,0,1,2.275-6.826,23.932,23.932,0,0,1,5.273-5.883,25.934,25.934,0,0,1,7.159-4.107A22.178,22.178,0,0,1,337-58.053Z" transform="translate(-4.995 82.14)"/>
  <path id="Path_2" data-name="Path 2" d="M18.918-8.5a3.169,3.169,0,0,0-1.2-2.637A14.884,14.884,0,0,0,13.513-13.1a40.368,40.368,0,0,1-4.922-1.956q-6.218-3.054-6.218-8.394a7.527,7.527,0,0,1,1.549-4.691A10.019,10.019,0,0,1,8.306-31.3a17.059,17.059,0,0,1,6.372-1.132,14.922,14.922,0,0,1,6.185,1.23,9.793,9.793,0,0,1,4.252,3.5,9.152,9.152,0,0,1,1.516,5.2H18.94a3.867,3.867,0,0,0-1.2-3.032A4.668,4.668,0,0,0,14.5-26.609a5.264,5.264,0,0,0-3.263.912,2.8,2.8,0,0,0-1.2,2.318,2.817,2.817,0,0,0,1.318,2.23A16.625,16.625,0,0,0,16-19.083a28.4,28.4,0,0,1,5.449,2.3q5.186,2.988,5.186,8.24a7.812,7.812,0,0,1-3.164,6.592Q20.3.439,14.788.439a17.219,17.219,0,0,1-7.042-1.4A10.618,10.618,0,0,1,3-4.779a9.962,9.962,0,0,1-1.593-5.592H9.141a4.906,4.906,0,0,0,1.329,3.79,6.283,6.283,0,0,0,4.318,1.219,4.964,4.964,0,0,0,3.021-.824A2.72,2.72,0,0,0,18.918-8.5Zm76.509-5.076H83.3v7.646H97.625V0H75.586V-31.992H97.668v5.955H83.3v6.746H95.427Zm62.051-4.526,5.889-13.887h8.328l-10.305,20.5V0h-7.822V-11.492l-10.283-20.5h8.284ZM245.764,0H238.1V-13.359h-11.36V0h-7.712V-31.992h7.712v12.7H238.1v-12.7h7.668Zm74.971-31.992v20.94a12.035,12.035,0,0,1-1.516,6.163,9.822,9.822,0,0,1-4.351,3.966,15.327,15.327,0,0,1-6.7,1.362q-5.845,0-9.207-3.032a10.814,10.814,0,0,1-3.428-8.306V-31.992h7.756v21.248q.132,5.251,4.878,5.251a4.721,4.721,0,0,0,3.625-1.318,6.162,6.162,0,0,0,1.23-4.285v-20.9ZM397.266,0H389.6L378.259-19.907V0h-7.712V-31.992h7.712l11.316,19.907V-31.992h7.69Z" transform="translate(0.005 136.14)" fill="#e5001a"/>
</svg>
