<svg id="alihan-seyhun-logo-small" xmlns="http://www.w3.org/2000/svg" width="180.271" height="61.579" viewBox="0 0 180.271 61.579">
  <path id="Path_1" data-name="Path 1" d="M27.611-70.679a1.43,1.43,0,0,1,1.083.45,1.538,1.538,0,0,1,.428,1.1v22.521a1.436,1.436,0,0,1-.453,1.051,1.454,1.454,0,0,1-1.058.45,1.411,1.411,0,0,1-1.108-.45,1.527,1.527,0,0,1-.4-1.051v-5.956l.856-.4a5.994,5.994,0,0,1-.781,2.853,10.339,10.339,0,0,1-2.141,2.7,10.978,10.978,0,0,1-3.2,2.027,10.2,10.2,0,0,1-4,.776,10.894,10.894,0,0,1-6.069-1.752,12.062,12.062,0,0,1-4.231-4.8A15.038,15.038,0,0,1,5-58.018,14.6,14.6,0,0,1,6.556-64.9a12.066,12.066,0,0,1,4.231-4.679,10.916,10.916,0,0,1,5.994-1.7,10.877,10.877,0,0,1,4.055.751,10.568,10.568,0,0,1,3.3,2.052A9.805,9.805,0,0,1,26.351-65.5a7.938,7.938,0,0,1,.806,3.478L26.1-62.772v-6.356a1.592,1.592,0,0,1,.4-1.1A1.411,1.411,0,0,1,27.611-70.679ZM17.134-47.408a8.34,8.34,0,0,0,4.735-1.376,9.412,9.412,0,0,0,3.249-3.8,12.224,12.224,0,0,0,1.184-5.43,11.637,11.637,0,0,0-1.184-5.3,9.72,9.72,0,0,0-3.249-3.753,8.232,8.232,0,0,0-4.735-1.4,8.487,8.487,0,0,0-4.709,1.351,9.268,9.268,0,0,0-3.274,3.7,11.866,11.866,0,0,0-1.184,5.405,12.447,12.447,0,0,0,1.158,5.43,9.164,9.164,0,0,0,3.249,3.8A8.46,8.46,0,0,0,17.134-47.408Zm28.257.8a1.436,1.436,0,0,1-.453,1.051,1.454,1.454,0,0,1-1.058.45,1.43,1.43,0,0,1-1.083-.45,1.478,1.478,0,0,1-.428-1.051V-80.639a1.436,1.436,0,0,1,.453-1.051,1.454,1.454,0,0,1,1.058-.45,1.43,1.43,0,0,1,1.083.45,1.478,1.478,0,0,1,.428,1.051Zm16.219,0a1.436,1.436,0,0,1-.453,1.051,1.454,1.454,0,0,1-1.058.45,1.43,1.43,0,0,1-1.083-.45,1.478,1.478,0,0,1-.428-1.051V-69.628a1.478,1.478,0,0,1,.428-1.051,1.43,1.43,0,0,1,1.083-.45,1.43,1.43,0,0,1,1.083.45,1.478,1.478,0,0,1,.428,1.051ZM60.1-74.483a2.308,2.308,0,0,1-1.587-.475,1.755,1.755,0,0,1-.529-1.376v-.5a1.678,1.678,0,0,1,.579-1.376,2.429,2.429,0,0,1,1.587-.475,2.145,2.145,0,0,1,1.486.475,1.755,1.755,0,0,1,.529,1.376v.5a1.755,1.755,0,0,1-.529,1.376A2.226,2.226,0,0,1,60.1-74.483Zm26.141,3.6a8.892,8.892,0,0,1,5.138,1.351,7.938,7.938,0,0,1,2.9,3.653,13.489,13.489,0,0,1,.932,5.1v14.163a1.436,1.436,0,0,1-.453,1.051,1.454,1.454,0,0,1-1.058.45,1.411,1.411,0,0,1-1.108-.45,1.527,1.527,0,0,1-.4-1.051V-60.77a10.33,10.33,0,0,0-.63-3.7,5.5,5.5,0,0,0-2.04-2.627,6.528,6.528,0,0,0-3.778-.976,8.6,8.6,0,0,0-4,.976,8.31,8.31,0,0,0-3.047,2.627,6.3,6.3,0,0,0-1.158,3.7v14.163a1.436,1.436,0,0,1-.453,1.051,1.454,1.454,0,0,1-1.058.45,1.411,1.411,0,0,1-1.108-.45,1.527,1.527,0,0,1-.4-1.051V-80.639a1.478,1.478,0,0,1,.428-1.051,1.43,1.43,0,0,1,1.083-.45,1.43,1.43,0,0,1,1.083.45,1.478,1.478,0,0,1,.428,1.051v16.215l-1.158,1.752A6.707,6.707,0,0,1,77.35-65.7a10.372,10.372,0,0,1,2.292-2.652A11.346,11.346,0,0,1,82.764-70.2,9.4,9.4,0,0,1,86.24-70.88Zm42.813.2a1.43,1.43,0,0,1,1.083.45,1.538,1.538,0,0,1,.428,1.1v22.521a1.436,1.436,0,0,1-.453,1.051,1.454,1.454,0,0,1-1.058.45,1.411,1.411,0,0,1-1.108-.45,1.527,1.527,0,0,1-.4-1.051v-5.956l.856-.4a5.994,5.994,0,0,1-.781,2.853,10.339,10.339,0,0,1-2.141,2.7,10.978,10.978,0,0,1-3.2,2.027,10.2,10.2,0,0,1-4,.776,10.894,10.894,0,0,1-6.069-1.752,12.062,12.062,0,0,1-4.231-4.8,15.038,15.038,0,0,1-1.536-6.856A14.6,14.6,0,0,1,108-64.9a12.066,12.066,0,0,1,4.231-4.679,10.916,10.916,0,0,1,5.994-1.7,10.877,10.877,0,0,1,4.055.751,10.568,10.568,0,0,1,3.3,2.052,9.805,9.805,0,0,1,2.216,2.978,7.938,7.938,0,0,1,.806,3.478l-1.058-.751v-6.356a1.592,1.592,0,0,1,.4-1.1A1.411,1.411,0,0,1,129.053-70.679ZM118.577-47.408a8.34,8.34,0,0,0,4.735-1.376,9.412,9.412,0,0,0,3.249-3.8,12.224,12.224,0,0,0,1.184-5.43,11.637,11.637,0,0,0-1.184-5.3,9.72,9.72,0,0,0-3.249-3.753,8.232,8.232,0,0,0-4.735-1.4,8.487,8.487,0,0,0-4.709,1.351,9.268,9.268,0,0,0-3.274,3.7,11.866,11.866,0,0,0-1.184,5.405,12.447,12.447,0,0,0,1.158,5.43,9.164,9.164,0,0,0,3.249,3.8A8.46,8.46,0,0,0,118.577-47.408ZM155.648-71.28a9.446,9.446,0,0,1,5.314,1.326,7.456,7.456,0,0,1,2.871,3.6,13.825,13.825,0,0,1,.881,5.03v14.714a1.436,1.436,0,0,1-.453,1.051,1.454,1.454,0,0,1-1.058.45,1.411,1.411,0,0,1-1.108-.45,1.527,1.527,0,0,1-.4-1.051V-61.171a9.831,9.831,0,0,0-.655-3.653,5.636,5.636,0,0,0-2.141-2.652,6.869,6.869,0,0,0-3.9-1,8.827,8.827,0,0,0-4.105,1,8.87,8.87,0,0,0-3.148,2.652,6.044,6.044,0,0,0-1.209,3.653v14.564a1.436,1.436,0,0,1-.453,1.051,1.454,1.454,0,0,1-1.058.45,1.411,1.411,0,0,1-1.108-.45,1.527,1.527,0,0,1-.4-1.051V-69.028a1.478,1.478,0,0,1,.428-1.051,1.43,1.43,0,0,1,1.083-.45,1.43,1.43,0,0,1,1.083.45,1.478,1.478,0,0,1,.428,1.051v4.2l-1.158,1.8a6.467,6.467,0,0,1,1.033-3.078,10.814,10.814,0,0,1,2.393-2.652,11.787,11.787,0,0,1,3.249-1.852A10.121,10.121,0,0,1,155.648-71.28Z" transform="translate(-4.995 82.14)" fill="#fff"/>
  <path id="Path_2" data-name="Path 2" d="M9.353-21.643a1.425,1.425,0,0,0-.543-1.189A6.773,6.773,0,0,0,6.9-23.714,18.387,18.387,0,0,1,4.667-24.6Q1.845-25.972,1.845-28.38a3.379,3.379,0,0,1,.7-2.115,4.545,4.545,0,0,1,1.989-1.427,7.785,7.785,0,0,1,2.891-.51,6.809,6.809,0,0,1,2.807.555,4.437,4.437,0,0,1,1.929,1.58,4.107,4.107,0,0,1,.688,2.343H9.363a1.738,1.738,0,0,0-.543-1.367,2.127,2.127,0,0,0-1.471-.485,2.4,2.4,0,0,0-1.481.411,1.259,1.259,0,0,0-.543,1.045,1.268,1.268,0,0,0,.6,1.006,7.567,7.567,0,0,0,2.1.931A12.932,12.932,0,0,1,10.5-25.378a4.126,4.126,0,0,1,2.353,3.715,3.514,3.514,0,0,1-1.436,2.972,6.416,6.416,0,0,1-3.938,1.08,7.857,7.857,0,0,1-3.2-.629,4.812,4.812,0,0,1-2.154-1.724,4.47,4.47,0,0,1-.723-2.521h3.51a2.2,2.2,0,0,0,.6,1.709,2.864,2.864,0,0,0,1.959.55A2.263,2.263,0,0,0,8.849-20.6,1.223,1.223,0,0,0,9.353-21.643ZM44.07-23.932h-5.5v3.448h6.5v2.675h-10V-32.234h10.02v2.685H38.567v3.041h5.5Zm28.157-2.041L74.9-32.234h3.779L74-22.99v5.181h-3.55V-22.99l-4.666-9.243h3.759Zm40.062,8.163h-3.48v-6.023h-5.155v6.023h-3.5V-32.234h3.5v5.726h5.155v-5.726h3.48Zm34.02-14.424v9.441a5.4,5.4,0,0,1-.688,2.779,4.446,4.446,0,0,1-1.974,1.788,6.993,6.993,0,0,1-3.041.614,6.033,6.033,0,0,1-4.178-1.367,4.861,4.861,0,0,1-1.555-3.745v-9.511h3.52v9.58q.06,2.368,2.213,2.368a2.15,2.15,0,0,0,1.645-.594,2.766,2.766,0,0,0,.558-1.932v-9.421Zm34.728,14.424h-3.48l-5.145-8.976v8.976h-3.5V-32.234h3.5l5.135,8.976v-8.976h3.49Z" transform="translate(-0.766 79.191)" fill="#fff"/>
</svg>
