<svg xmlns="http://www.w3.org/2000/svg" width="179.636" height="61.59" viewBox="0 0 179.636 61.59">
  <g id="Group_2" data-name="Group 2" transform="translate(-10193.634 -2925)">
    <g id="Group_1" data-name="Group 1" transform="translate(9396.028 2445.015)">
      <path id="Path_4" data-name="Path 4" d="M27.271-66.543a1.4,1.4,0,0,1,1.067.447,1.53,1.53,0,0,1,.422,1.091v22.326a1.446,1.446,0,0,1-.422,1.067,1.446,1.446,0,0,1-1.067.422,1.446,1.446,0,0,1-1.067-.422,1.446,1.446,0,0,1-.422-1.067V-46a10.4,10.4,0,0,1-3.721,3.771,10.069,10.069,0,0,1-5.408,1.538,10.68,10.68,0,0,1-5.978-1.736,11.934,11.934,0,0,1-4.167-4.763A14.987,14.987,0,0,1,5-53.991a14.635,14.635,0,0,1,1.538-6.772,11.786,11.786,0,0,1,4.192-4.688A10.737,10.737,0,0,1,16.6-67.138,10.683,10.683,0,0,1,22.062-65.7a9.476,9.476,0,0,1,3.721,3.771v-3.076A1.53,1.53,0,0,1,26.2-66.1,1.4,1.4,0,0,1,27.271-66.543ZM16.952-43.473a8.21,8.21,0,0,0,4.639-1.364,9.243,9.243,0,0,0,3.225-3.771,12.184,12.184,0,0,0,1.166-5.383,11.8,11.8,0,0,0-1.166-5.259A9.278,9.278,0,0,0,21.59-63a8.21,8.21,0,0,0-4.639-1.364,8.32,8.32,0,0,0-4.639,1.34,9.132,9.132,0,0,0-3.225,3.7,11.867,11.867,0,0,0-1.166,5.333,12.407,12.407,0,0,0,1.141,5.383,9.069,9.069,0,0,0,3.2,3.771A8.294,8.294,0,0,0,16.952-43.473ZM53.367-67.138a3.939,3.939,0,0,1,1.786.4,1.271,1.271,0,0,1,.794,1.191,1.562,1.562,0,0,1-.4,1.116,1.252,1.252,0,0,1-.943.422,3.793,3.793,0,0,1-.967-.248,4.188,4.188,0,0,0-1.364-.248,5.907,5.907,0,0,0-3.647,1.414,11.012,11.012,0,0,0-2.977,3.647,9.662,9.662,0,0,0-1.166,4.515v12.254a1.446,1.446,0,0,1-.422,1.067A1.446,1.446,0,0,1,43-41.191a1.446,1.446,0,0,1-1.067-.422,1.446,1.446,0,0,1-.422-1.067V-64.906a1.446,1.446,0,0,1,.422-1.067A1.446,1.446,0,0,1,43-66.394a1.446,1.446,0,0,1,1.067.422,1.446,1.446,0,0,1,.422,1.067v4.366a11.386,11.386,0,0,1,3.448-4.688A8.62,8.62,0,0,1,53.367-67.138ZM68.449-42.679a1.446,1.446,0,0,1-.422,1.067,1.446,1.446,0,0,1-1.067.422,1.446,1.446,0,0,1-1.067-.422,1.446,1.446,0,0,1-.422-1.067V-65.5a1.446,1.446,0,0,1,.422-1.067,1.446,1.446,0,0,1,1.067-.422,1.446,1.446,0,0,1,1.067.422,1.446,1.446,0,0,1,.422,1.067ZM66.961-70.314a2.281,2.281,0,0,1-1.538-.471,1.7,1.7,0,0,1-.546-1.364v-.5a1.668,1.668,0,0,1,.571-1.364,2.382,2.382,0,0,1,1.563-.471Q69-74.481,69-72.645v.5a1.746,1.746,0,0,1-.521,1.364A2.183,2.183,0,0,1,66.961-70.314Z" transform="translate(793 554.466)" fill="#fff"/>
    </g>
    <path id="Path_2" data-name="Path 2" d="M9.353-21.643a1.425,1.425,0,0,0-.543-1.189,6.773,6.773,0,0,0-1.91-.882A18.387,18.387,0,0,1,4.667-24.6q-2.822-1.372-2.822-3.78a3.379,3.379,0,0,1,.7-2.115,4.545,4.545,0,0,1,1.989-1.427,7.785,7.785,0,0,1,2.891-.51,6.809,6.809,0,0,1,2.807.555,4.437,4.437,0,0,1,1.929,1.58,4.107,4.107,0,0,1,.688,2.343H9.363a1.738,1.738,0,0,0-.543-1.367,2.127,2.127,0,0,0-1.471-.485,2.4,2.4,0,0,0-1.481.411,1.259,1.259,0,0,0-.543,1.045,1.268,1.268,0,0,0,.6,1.006,7.567,7.567,0,0,0,2.1.931A12.932,12.932,0,0,1,10.5-25.378a4.126,4.126,0,0,1,2.353,3.715,3.514,3.514,0,0,1-1.436,2.972,6.416,6.416,0,0,1-3.938,1.08,7.857,7.857,0,0,1-3.2-.629,4.812,4.812,0,0,1-2.154-1.724A4.47,4.47,0,0,1,1.4-22.485h3.51a2.2,2.2,0,0,0,.6,1.709,2.864,2.864,0,0,0,1.959.55A2.263,2.263,0,0,0,8.849-20.6a1.223,1.223,0,0,0,.5-1.043ZM44.07-23.932h-5.5v3.448h6.5v2.675h-10V-32.234H45.09v2.685H38.567v3.041h5.5Zm28.157-2.041L74.9-32.234h3.779L74-22.99v5.181H70.45V-22.99l-4.666-9.243h3.759Zm40.062,8.163h-3.48v-6.023h-5.155v6.023h-3.5V-32.234h3.5v5.726h5.155v-5.726h3.48Zm34.02-14.424v9.441a5.4,5.4,0,0,1-.688,2.779,4.446,4.446,0,0,1-1.974,1.788,6.993,6.993,0,0,1-3.041.614,6.033,6.033,0,0,1-4.178-1.367,4.861,4.861,0,0,1-1.555-3.745v-9.511h3.52v9.58q.06,2.368,2.213,2.368a2.15,2.15,0,0,0,1.645-.594,2.766,2.766,0,0,0,.558-1.932v-9.421ZM181.037-17.81h-3.48l-5.145-8.976v8.976h-3.5V-32.234h3.5l5.135,8.976v-8.976h3.49Z" transform="translate(10192.232 3004.191)" fill="#fff"/>
  </g>
</svg>
