<svg xmlns="http://www.w3.org/2000/svg" width="287.861" height="119.758" viewBox="0 0 287.861 119.758">
  <g id="Group_1" data-name="Group 1" transform="translate(-797.995 -479.613)">
    <path id="Path_3" data-name="Path 3" d="M15.976-7.181a2.676,2.676,0,0,0-1.011-2.227,12.569,12.569,0,0,0-3.553-1.651A34.089,34.089,0,0,1,7.255-12.71Q2-15.289,2-19.8a6.356,6.356,0,0,1,1.308-3.961,8.461,8.461,0,0,1,3.7-2.672,14.405,14.405,0,0,1,5.381-.956,12.6,12.6,0,0,1,5.223,1.039,8.27,8.27,0,0,1,3.59,2.959A7.728,7.728,0,0,1,22.488-19H15.994a3.266,3.266,0,0,0-1.011-2.561,3.942,3.942,0,0,0-2.737-.909,4.445,4.445,0,0,0-2.755.77,2.362,2.362,0,0,0-1.011,1.958,2.378,2.378,0,0,0,1.113,1.883,14.039,14.039,0,0,0,3.915,1.744,23.983,23.983,0,0,1,4.6,1.939q4.379,2.523,4.379,6.958a6.6,6.6,0,0,1-2.672,5.566A11.884,11.884,0,0,1,12.487.371,14.541,14.541,0,0,1,6.541-.807,8.966,8.966,0,0,1,2.533-4.036,8.412,8.412,0,0,1,1.188-8.758H7.719a4.143,4.143,0,0,0,1.123,3.2,5.306,5.306,0,0,0,3.646,1.03,4.191,4.191,0,0,0,2.551-.7A2.3,2.3,0,0,0,15.976-7.181Zm64.607-4.286H70.341V-5.01h12.1V0H63.828V-27.016H82.476v5.028H70.341v5.7H80.583ZM11.931,30.711,16.9,18.984h7.032L15.233,36.3V46H8.628V36.3L-.056,18.984h7ZM86.483,46H80.008V34.719H70.415V46H63.9V18.984h6.513V29.709h9.593V18.984h6.476ZM23.23,64.984V82.667a10.163,10.163,0,0,1-1.28,5.2,8.294,8.294,0,0,1-3.674,3.349,12.942,12.942,0,0,1-5.659,1.15,11.181,11.181,0,0,1-7.774-2.561A9.132,9.132,0,0,1,1.948,82.8V64.984H8.5V82.927q.111,4.435,4.119,4.435a3.987,3.987,0,0,0,3.062-1.113,5.2,5.2,0,0,0,1.039-3.618V64.984ZM87.856,92H81.381L71.807,75.189V92H65.294V64.984h6.513l9.556,16.811V64.984h6.494Z" transform="translate(998 507)" fill="#e5001a"/>
    <path id="Path_4" data-name="Path 4" d="M54.834-56.721a3.142,3.142,0,0,1,2.386,1,3.424,3.424,0,0,1,.944,2.442V-3.33a3.234,3.234,0,0,1-.944,2.387A3.234,3.234,0,0,1,54.834,0a3.234,3.234,0,0,1-2.387-.944A3.234,3.234,0,0,1,51.5-3.33v-7.437a23.258,23.258,0,0,1-8.325,8.436A22.528,22.528,0,0,1,31.08,1.11,23.9,23.9,0,0,1,17.7-2.775,26.7,26.7,0,0,1,8.381-13.431,33.532,33.532,0,0,1,5-28.638,32.743,32.743,0,0,1,8.436-43.79a26.369,26.369,0,0,1,9.379-10.49,24.023,24.023,0,0,1,13.154-3.774,23.9,23.9,0,0,1,12.21,3.219A21.2,21.2,0,0,1,51.5-46.4V-53.28a3.424,3.424,0,0,1,.944-2.442A3.142,3.142,0,0,1,54.834-56.721ZM31.746-5.106A18.369,18.369,0,0,0,42.125-8.158a20.681,20.681,0,0,0,7.215-8.436,27.259,27.259,0,0,0,2.608-12.044A26.4,26.4,0,0,0,49.34-40.4a20.757,20.757,0,0,0-7.215-8.381,18.369,18.369,0,0,0-10.379-3.052,18.616,18.616,0,0,0-10.379,3,20.432,20.432,0,0,0-7.215,8.27,26.551,26.551,0,0,0-2.609,11.932A27.758,27.758,0,0,0,14.1-16.595a20.289,20.289,0,0,0,7.16,8.436A18.557,18.557,0,0,0,31.746-5.106ZM113.22-58.053a8.812,8.812,0,0,1,4,.888,2.845,2.845,0,0,1,1.776,2.664A3.5,3.5,0,0,1,118.1-52a2.8,2.8,0,0,1-2.109.944,8.485,8.485,0,0,1-2.164-.555,9.371,9.371,0,0,0-3.052-.555,13.216,13.216,0,0,0-8.159,3.164,24.637,24.637,0,0,0-6.66,8.158,21.617,21.617,0,0,0-2.608,10.1V-3.33a3.234,3.234,0,0,1-.943,2.387A3.234,3.234,0,0,1,90.021,0a3.234,3.234,0,0,1-2.386-.944,3.234,3.234,0,0,1-.944-2.387V-53.058a3.234,3.234,0,0,1,.944-2.387,3.234,3.234,0,0,1,2.386-.943,3.234,3.234,0,0,1,2.387.943,3.234,3.234,0,0,1,.943,2.387v9.768a25.474,25.474,0,0,1,7.715-10.49A19.287,19.287,0,0,1,113.22-58.053ZM146.964-3.33a3.234,3.234,0,0,1-.943,2.387A3.234,3.234,0,0,1,143.634,0a3.234,3.234,0,0,1-2.387-.944A3.234,3.234,0,0,1,140.3-3.33V-54.39a3.234,3.234,0,0,1,.943-2.387,3.235,3.235,0,0,1,2.387-.944,3.234,3.234,0,0,1,2.387.944,3.234,3.234,0,0,1,.943,2.387Zm-3.33-61.827a5.1,5.1,0,0,1-3.441-1.055,3.813,3.813,0,0,1-1.221-3.052v-1.11a3.733,3.733,0,0,1,1.277-3.053,5.329,5.329,0,0,1,3.5-1.054q4.44,0,4.44,4.107v1.11a3.906,3.906,0,0,1-1.165,3.052A4.884,4.884,0,0,1,143.634-65.157Z" transform="translate(793 578)"/>
  </g>
</svg>
