<svg xmlns="http://www.w3.org/2000/svg" width="21.384" height="16.801" viewBox="0 0 21.384 16.801">
  <g id="envelope" transform="translate(0 -54.82)">
    <g id="Group_2" data-name="Group 2" transform="translate(0 54.82)">
      <path id="Path_4" data-name="Path 4" d="M2.052,60q.406.286,2.446,1.7t3.126,2.178q.119.084.507.364t.644.454q.257.173.621.388a3.6,3.6,0,0,0,.686.322,1.89,1.89,0,0,0,.6.107H10.7a1.892,1.892,0,0,0,.6-.107,3.6,3.6,0,0,0,.686-.322q.364-.215.62-.388t.644-.454q.388-.281.507-.364L19.343,60A5.669,5.669,0,0,0,20.8,58.531a3.151,3.151,0,0,0,.585-1.8,1.925,1.925,0,0,0-1.909-1.909H1.909A1.7,1.7,0,0,0,.5,55.44,2.409,2.409,0,0,0,0,56.992a2.787,2.787,0,0,0,.656,1.629A5.923,5.923,0,0,0,2.052,60Z" transform="translate(0 -54.82)" fill="#fff"/>
      <path id="Path_5" data-name="Path 5" d="M20.19,185.475q-3.914,2.649-5.942,4.117-.68.5-1.1.782a6.811,6.811,0,0,1-1.128.573,3.434,3.434,0,0,1-1.312.292H10.68a3.435,3.435,0,0,1-1.313-.292,6.814,6.814,0,0,1-1.128-.573q-.423-.28-1.1-.782-1.611-1.181-5.931-4.117A6.32,6.32,0,0,1,0,184.437v9.474a1.838,1.838,0,0,0,.561,1.349,1.838,1.838,0,0,0,1.348.561H19.475a1.915,1.915,0,0,0,1.909-1.91v-9.474A6.578,6.578,0,0,1,20.19,185.475Z" transform="translate(0 -179.02)" fill="#fff"/>
    </g>
  </g>
</svg>
