<?xml version="1.0" standalone="no"?>
<!DOCTYPE svg PUBLIC "-//W3C//DTD SVG 20010904//EN"
 "http://www.w3.org/TR/2001/REC-SVG-20010904/DTD/svg10.dtd">
<svg version="1.0" xmlns="http://www.w3.org/2000/svg"
 width="512.000000pt" height="512.000000pt" viewBox="0 0 512.000000 512.000000"
 preserveAspectRatio="xMidYMid meet">
<metadata>
Created by potrace 1.11, written by Peter Selinger 2001-2013
</metadata>
<g transform="translate(0.000000,512.000000) scale(0.100000,-0.100000)"
fill="#000000" stroke="none">
<path d="M1059 5105 c-129 -32 -225 -97 -271 -185 -19 -37 -23 -60 -23 -130 0
-99 17 -138 86 -208 58 -58 122 -93 288 -156 175 -67 207 -89 217 -153 13 -87
-40 -135 -149 -135 -114 -1 -185 48 -197 136 l-5 41 -139 0 c-159 0 -155 3
-130 -92 21 -79 59 -139 123 -189 195 -153 568 -142 714 21 38 42 67 121 68
181 0 109 -19 162 -87 234 -59 63 -143 111 -276 157 -182 62 -238 102 -238
168 0 95 170 149 262 83 32 -22 58 -67 58 -98 0 -21 -1 -21 145 -21 143 0 135
-2 135 31 0 46 -35 136 -70 180 -40 51 -98 91 -175 120 -75 28 -249 36 -336
15z"/>
<path d="M3424 4525 l1 -580 400 0 400 0 2 103 c1 56 -1 103 -5 103 -4 1 -118
3 -254 4 -136 1 -251 5 -255 9 -4 4 -8 66 -8 137 -1 123 0 129 20 130 11 1
106 2 210 4 105 1 195 3 202 4 8 1 11 31 11 101 -1 84 -4 100 -17 101 -9 0
-107 1 -218 1 -178 1 -203 3 -204 17 -4 42 -5 207 -2 217 3 8 75 12 236 12
128 0 244 1 260 1 l27 1 0 105 c0 58 -3 106 -7 106 -5 1 -186 2 -404 3 l-395
1 0 -580z"/>
<path d="M743 3142 l-73 -3 187 -372 186 -372 1 -205 1 -205 29 -5 c16 -3 80
-4 142 -2 l114 3 0 208 0 209 185 366 c102 201 185 369 185 373 0 10 -293 5
-301 -5 -3 -4 -52 -116 -109 -250 -101 -238 -104 -242 -116 -213 -7 17 -19 45
-28 63 -8 18 -42 98 -75 178 -34 80 -71 165 -84 189 l-22 44 -75 1 c-41 0
-108 0 -147 -2z"/>
<path d="M3483 3142 c-50 -3 -53 -5 -54 -30 -4 -119 -3 -1083 1 -1106 6 -31
-16 -28 220 -26 l60 0 0 243 0 242 200 -1 c110 0 202 -3 206 -6 3 -3 5 -112 5
-242 l-1 -236 53 -1 c28 0 91 -1 140 -2 l87 -2 1 40 c2 205 0 1118 -4 1121 -2
3 -56 5 -118 5 -178 1 -161 5 -159 -43 1 -24 1 -127 1 -230 l-1 -188 -205 0
-205 0 0 230 c0 177 -3 230 -12 230 -92 4 -173 4 -215 2z"/>
<path d="M756 763 c1 -230 4 -434 8 -453 11 -52 65 -146 110 -191 79 -77 189
-116 333 -117 237 -2 386 90 448 278 17 49 19 96 20 465 1 226 -1 416 -3 423
-3 9 -40 12 -142 12 l-137 0 0 -409 c0 -360 -2 -414 -16 -453 -27 -70 -81
-101 -169 -99 -82 1 -138 42 -158 114 -7 24 -11 186 -11 442 l0 405 -142 0
-142 0 1 -417z"/>
<path d="M3489 1173 c-1 -10 -1 -1123 0 -1143 1 -13 21 -15 134 -14 72 1 135
2 140 3 4 0 7 162 7 359 l0 357 206 -360 205 -360 140 0 139 0 0 582 0 583
-140 0 -140 0 -2 -357 -3 -358 -45 79 c-25 43 -54 95 -65 115 -11 20 -82 145
-159 279 l-138 242 -139 0 c-77 0 -139 -3 -140 -7z"/>
</g>
</svg>
