<?xml version="1.0" standalone="no"?>
<!DOCTYPE svg PUBLIC "-//W3C//DTD SVG 20010904//EN"
 "http://www.w3.org/TR/2001/REC-SVG-20010904/DTD/svg10.dtd">
<svg version="1.0" xmlns="http://www.w3.org/2000/svg"
 width="512.000000pt" height="512.000000pt" viewBox="0 0 512.000000 512.000000"
 preserveAspectRatio="xMidYMid meet">
<metadata>
Created by potrace 1.11, written by Peter Selinger 2001-2013
</metadata>
<g transform="translate(0.000000,512.000000) scale(0.100000,-0.100000)"
fill="#000000" stroke="none">
<path d="M1370 4526 c-77 -23 -98 -34 -145 -77 -100 -92 -95 -245 10 -338 43
-37 124 -79 223 -115 131 -47 162 -72 162 -131 0 -44 -24 -73 -72 -86 -99 -26
-198 31 -198 116 l0 25 -110 0 -110 0 0 -42 c1 -120 111 -226 270 -259 31 -6
96 -9 148 -7 81 5 102 10 160 39 56 29 72 43 99 89 28 46 33 63 33 120 0 147
-83 231 -300 305 -89 30 -124 49 -149 81 -28 36 -26 60 7 93 70 70 222 32 222
-55 0 -24 1 -24 110 -24 l110 0 0 33 c0 80 -76 178 -169 219 -59 26 -234 35
-301 14z"/>
<path d="M3230 4075 l0 -455 315 0 315 0 0 85 0 85 -205 0 -206 0 3 108 3 107
173 3 172 2 0 80 0 80 -175 0 -175 0 0 95 0 95 205 0 205 0 0 85 0 85 -315 0
-315 0 0 -455z"/>
<path d="M1090 2990 c0 -5 65 -141 145 -300 l145 -290 0 -155 0 -155 110 0
110 0 0 164 0 163 145 285 c80 157 145 288 145 292 0 3 -53 6 -118 6 l-118 0
-78 -187 c-44 -104 -82 -191 -85 -195 -4 -4 -43 79 -88 185 l-81 192 -116 3
c-75 2 -116 -1 -116 -8z"/>
<path d="M3230 2545 l0 -455 110 0 110 0 2 188 3 187 160 0 160 0 3 -187 2
-188 105 0 105 0 0 455 0 455 -105 0 -105 0 0 -180 0 -180 -165 0 -165 0 0
180 0 180 -110 0 -110 0 0 -455z"/>
<path d="M1150 1137 c0 -360 4 -392 63 -469 68 -90 203 -138 344 -124 136 14
230 73 280 174 l28 57 3 343 3 342 -110 0 -111 0 0 -317 c0 -288 -2 -322 -19
-359 -43 -94 -195 -98 -242 -6 -11 21 -15 98 -17 355 l-3 327 -110 0 -109 0 0
-323z"/>
<path d="M3280 1010 l0 -450 110 0 110 0 2 274 3 275 155 -272 156 -272 112
-3 112 -3 0 451 0 450 -110 0 -110 0 0 -277 0 -278 -158 277 -157 278 -112 0
-113 0 0 -450z"/>
</g>
</svg>
