<svg xmlns="http://www.w3.org/2000/svg" viewBox="0 0 128 103.03"><path d="M81.51,41.27h3.9L96.54,30.15l.54-4.73A50,50,0,0,0,15.72,49.83a6,6,0,0,1,3.91-.24l22.25-3.67S43,44.05,43.6,44.16a27.75,27.75,0,0,1,38-2.89Z" transform="translate(-0.29 -12.91)" fill="white"/><path d="M112.39,49.83A50.11,50.11,0,0,0,97.28,25.47L81.67,41.08a27.78,27.78,0,0,1,10.19,22v2.78a13.9,13.9,0,1,1,0,27.79H64.06l-2.77,2.82v16.67l2.77,2.77h27.8a36.16,36.16,0,0,0,20.53-66.1Z" transform="translate(-0.29 -12.91)" fill="white"/><path d="M36.22,115.76H64V93.51H36.22a13.75,13.75,0,0,1-5.74-1.26l-3.9,1.22-11.2,11.12-1,3.91A35.94,35.94,0,0,0,36.22,115.76Z" transform="translate(-0.29 -12.91)" fill="white"/><path d="M36.22,43.58a36.15,36.15,0,0,0-21.82,64.8L30.52,92.26A13.9,13.9,0,1,1,48.91,73.87L65,57.75A36.08,36.08,0,0,0,36.22,43.58Z" transform="translate(-0.29 -12.91)" fill="white"/></svg>
