<svg xmlns="http://www.w3.org/2000/svg" viewBox="0 0 127.86 128"><title>netlify</title><path d="M92.73,44.42l0,0a.2.2,0,0,1-.08,0,.36.36,0,0,1-.09-.31L95.1,28.27l12.1,12.1L94.61,45.73l-.11,0h0l-.06-.06A5.73,5.73,0,0,0,92.73,44.42Zm17.56-1L123.23,56.4c2.68,2.69,4,4,4.52,5.59q.1.34.18.69L97,49.59l-.05,0c-.13,0-.27-.11-.27-.24s.15-.18.27-.23l0,0ZM127.4,66.84c-.67,1.25-2,2.55-4.17,4.76L108.64,86.18,89.77,82.26l-.1,0c-.16,0-.34-.06-.34-.21a5.68,5.68,0,0,0-2.19-4,.37.37,0,0,1,0-.31.09.09,0,0,1,0,0l3.54-21.78,0-.08c0-.16,0-.36.2-.36a5.77,5.77,0,0,0,3.87-2.22s0-.07.09-.09a.42.42,0,0,1,.34.05L127.4,66.84Zm-22.11,22.7-24,24,4.1-25.24v0a.3.3,0,0,1,0-.1c0-.08.12-.11.2-.15h0A6.21,6.21,0,0,0,88,86.27a.55.55,0,0,1,.3-.2h.1l16.89,3.47ZM76.22,118.61l-2.7,2.7-29.9-43.2,0,0a.28.28,0,0,1-.09-.2.27.27,0,0,1,.07-.14l0,0c.09-.14.17-.27.25-.42l.07-.11h0a.42.42,0,0,1,.17-.2.39.39,0,0,1,.24,0l33.12,6.83a.71.71,0,0,1,.25.11.23.23,0,0,1,.07.15,5.83,5.83,0,0,0,3.43,3.92c.09,0,0,.15,0,.26a.88.88,0,0,0,0,.15C80.76,90.89,77.18,112.71,76.22,118.61Zm-5.65,5.64c-2,2-3.17,3-4.5,3.44a6.72,6.72,0,0,1-4,0c-1.56-.49-2.9-1.84-5.59-4.53l-30-30L34.28,81a.65.65,0,0,1,.13-.16.37.37,0,0,1,.31,0,8.1,8.1,0,0,0,5.47-.27.23.23,0,0,1,.25,0l.09.11,30,43.59Zm-47-34-6.89-6.89,13.6-5.8a.2.2,0,0,1,.11,0c.11,0,.18.11.24.21s.28.42.43.62l.05,0c0,.06,0,.11,0,.17L23.55,90.25Zm-9.94-9.94L4.9,71.6C3.42,70.12,2.34,69,1.59,68.12l26.5,5.49.1,0c.16,0,.34.06.34.21s-.2.24-.36.31l-.08,0ZM.07,63.64A6.58,6.58,0,0,1,.37,62c.49-1.56,1.84-2.9,4.53-5.59L16.05,45.25q7.69,11.18,15.44,22.32c.09.12.19.25.09.35a9.06,9.06,0,0,0-1.32,1.77.55.55,0,0,1-.17.2.17.17,0,0,1-.14,0h0L.07,63.63ZM19,42.26l15-15c1.41.62,6.54,2.78,11.12,4.72l7.64,3.24a.35.35,0,0,1,.23.18.34.34,0,0,1,0,.2,6.69,6.69,0,0,0,1.74,6.1c.1.1,0,.25-.08.37l-.05.07L39.4,65.73a.54.54,0,0,1-.14.16.41.41,0,0,1-.29,0,7.38,7.38,0,0,0-1.81-.25,10,10,0,0,0-1.75.21h0a.22.22,0,0,1-.18,0,.5.5,0,0,1-.15-.17L19,42.26Zm18-18L56.46,4.83c2.69-2.68,4-4,5.59-4.52a6.72,6.72,0,0,1,4,0C67.63.8,69,2.15,71.66,4.83L75.87,9,62.07,30.42a.73.73,0,0,1-.14.16.35.35,0,0,1-.3,0,7,7,0,0,0-6.41,1.23c-.09.1-.23,0-.34,0C53.08,31,39.06,25.09,37.05,24.24ZM78.8,12,91.55,24.72l-3.08,19v0a.69.69,0,0,1,0,.13.27.27,0,0,1-.17.1,5.81,5.81,0,0,0-1.83.91l-.07,0a.21.21,0,0,1-.13.09.32.32,0,0,1-.14,0L66.69,36.79l0,0c-.12-.05-.27-.11-.27-.23a7.43,7.43,0,0,0-1-3.06c-.09-.15-.19-.31-.11-.47ZM65.67,40.7l18.21,7.71c.1.05.21.09.25.2a.31.31,0,0,1,0,.19,4.72,4.72,0,0,0-.1.87v.51c0,.13-.13.18-.25.23l0,0C80.86,51.66,43.25,67.7,43.2,67.7a.22.22,0,0,1-.18-.06c-.1-.1,0-.24.09-.37l0-.06L58.12,44l0,0c.09-.14.19-.3.35-.3l.15,0a6.55,6.55,0,0,0,.94.1,6.76,6.76,0,0,0,5.64-3,.49.49,0,0,1,.12-.13A.31.31,0,0,1,65.67,40.7ZM44.82,71.36l41-17.48a.16.16,0,0,1,.11.06,7.19,7.19,0,0,0,.6.51l.09.06c.09,0,.17.1.18.18a.25.25,0,0,1,0,.09L83.28,76.35l0,.09c0,.16,0,.35-.2.35a5.77,5.77,0,0,0-4.58,2.83l0,0a.52.52,0,0,1-.17.19.36.36,0,0,1-.23,0L45.37,73.1S44.86,71.37,44.82,71.36Z" transform="translate(-0.07 0)" style="fill:#fff"/></svg>