<svg xmlns="http://www.w3.org/2000/svg" viewBox="0 0 128 124.91"><title>nunjucks</title><path d="M58.38,126.38c-.35,0-.66.05-1,.05-6.48,0-13,0-19.45,0a1.06,1.06,0,0,1-1.25-.92Q29.3,99.66,21.83,73.8a1.73,1.73,0,0,0-.44-.83v53.4H0V1.57H1.1c6.29,0,12.59,0,18.88,0a1.4,1.4,0,0,1,1.64,1.2Q29,26.81,36.35,50.84a1.9,1.9,0,0,0,.43.83V2.91c0-1.34,0-1.34,1.35-1.34H58.38Z" transform="translate(0 -1.55)" style="fill:#fff"/><path d="M90.71,82.16v22.49h15.51V31.24c.4,0,.7-.06,1-.06,6.58,0,13.17,0,19.75,0,.77,0,1,.2,1,1q0,40.49,0,81a13.49,13.49,0,0,1-13.62,13.3c-10.64-.07-21.28,0-31.92,0A13.08,13.08,0,0,1,69.25,115.5a15.28,15.28,0,0,1-.25-2.86c0-8.15,0-16.29,0-24.44,0-.8.2-1.16,1-1.35,6.59-1.49,13.16-3,19.75-4.55C90,82.24,90.3,82.22,90.71,82.16Z" transform="translate(0 -1.55)" style="fill:#fff"/></svg>