<svg xmlns="http://www.w3.org/2000/svg" viewBox="0 0 111.9 128"><title>shopify</title><path d="M79.53,128h-.75a4.73,4.73,0,0,0-.68-.26l-9.93-1.85L17.88,116.5l-9.83-1.84c.33-2.51.65-4.9,1-7.29q2.06-16,4.1-31.95,2.48-19.12,4.94-38.25a1.47,1.47,0,0,1,1.2-1.46C23.63,34.39,28,33,32.35,31.65a2,2,0,0,0,1.46-1.56c1.56-4.6,2.69-9.46,5-13.67C43,8.89,48.33,2.32,57.28,0H61A11.84,11.84,0,0,1,66.8,3.24a1.09,1.09,0,0,0,.78.24C72.47,3.42,75.74,6,78,10c1.13,2,2,4.18,3,6.38l3.82-1.13c0,.55,0,.92,0,1.3Q84.1,31,83.42,45.4q-.83,17.4-1.66,34.81-.57,12-1.15,24.08Q80.05,116.14,79.53,128ZM28.63,90.29c-1.15,3.35-2.35,6.76-3.46,10.19a1.52,1.52,0,0,0,.47,1.27,50.87,50.87,0,0,0,5.72,4.59c4.19,2.63,8.81,4.06,13.8,3.3,11.16-1.69,18.4-11.5,17.15-22.71-.68-6.08-3.24-10.82-8.45-14.1Q51,71,48.26,69.08a6.17,6.17,0,0,1-2.75-6.27c.39-2.56,2.24-3.82,4.57-4.36a9.85,9.85,0,0,1,3.7-.26c2.82.43,5.6,1.1,8.53,1.7L67.9,45.66c-3.15-.46-6.1-1-9.06-1.31-8.56-1-15.91,1.44-21.62,8.08C32.6,57.81,30.77,64,32.3,71c.93,4.24,3.48,7.55,6.78,10.36a37.86,37.86,0,0,1,5.4,5.49c1.27,1.64,2.07,3.71.75,5.81a5.7,5.7,0,0,1-5.82,2.59,9.59,9.59,0,0,1-3.34-.91C33.58,93.11,31.18,91.7,28.63,90.29ZM38.78,29.47a2.89,2.89,0,0,0,.44,0,60.25,60.25,0,0,1,6.19-1.88c2.48-.48,3.49-1.67,4-4.23C50.84,15.54,54.65,9.15,61.9,5.23c.12-.07.18-.23.3-.39a5.92,5.92,0,0,0-4.89-.39c-4.92,1.72-8.45,5.13-11.61,9.11A36.21,36.21,0,0,0,38.78,29.47ZM65.29,9c-6.86,2.18-11.18,10.23-11.57,16,3.86-1.21,7.69-2.46,11.56-3.59a1.4,1.4,0,0,0,1.19-1.77c-.26-2.85-.45-5.72-.72-8.57A14.63,14.63,0,0,0,65.29,9Zm4.78-.45c.46,3.65.91,7.22,1.36,10.88l5.68-1.79C75.3,14,74.67,9.66,70.07,8.53Z" transform="translate(-8.05)" style="fill:#fff"/><path d="M82.28,128c.15-2.24.33-4.48.44-6.72.54-11.44,1-22.88,1.59-34.32q.94-19.78,1.9-39.56.69-14.48,1.34-28.95c0-.95.12-1.89.2-3.16l3.85,4.1c1.23,1.3,2.26,3.09,3.78,3.74s3.59.22,5.42.24c1.62,0,3.25,0,4.87,0,.74,0,1,.25,1.1,1q3.38,24.55,6.79,49.1,3.18,22.88,6.38,45.74a3.87,3.87,0,0,1,0,.49l-9.21,2.06-27,6A4.21,4.21,0,0,0,83,128Z" transform="translate(-8.05)" style="fill:#fff"/></svg>