<svg xmlns="http://www.w3.org/2000/svg" viewBox="0 0 92.06 128"><title>twig</title><path d="M46.85,122.14c-.43.94-1.77,1.91-1.67,2.93h2.09c0-1.08.64-1.93.42-2.93Z" transform="translate(-17.95)" style="fill:#fff"/><path d="M84.92,121.31c-.59,1-2,1.57-1.68,2.93h1.68c.13-1,1.09-1.78.83-2.93Z" transform="translate(-17.95)" style="fill:#fff"/><path d="M54.8,120.05H54c-.11.69.57,1.33.84,1.88a16,16,0,0,0,.83,1.89h1.68C57.59,122.17,55.55,121.36,54.8,120.05Z" transform="translate(-17.95)" style="fill:#fff"/><path d="M60.65,115.87h-.83v1.25h.83Z" transform="translate(-17.95)" style="fill:#fff"/><path d="M39.74,108.13c.41-.88,2.25-2.58,2.09-3.55h.42c.7-.47,2.16-1.31,2.51-2.1h2.93v-.41H46.43v-.42H43.92v.42H40.58v.41h-.84c-.89.78-1.91,1-2.51,2.1h-.84c0-.69.07-1.42,0-2.1s-.49-1.34-.42-2.09c0-2.2-.41-3.9-.41-6.06s-.69-4-.84-6.07c-.14-1.83-.13-3.56-.42-5.44-.12-.81-.48-2-.63-2.92s-.06-1.84-.21-2.72c-.06-.39-.33-1-.41-1.47l-.21-1.25c-.14-.8-.07-1.84-.21-2.72-.06-.38-.33-.95-.42-1.47L32,69c-.13-.8-.07-1.83-.21-2.72a12.07,12.07,0,0,1-.42-1.46c0-.42.05-.84,0-1.26-.1-1-.27-1.69-.42-2.72-.25-1.8-.54-3.58-.83-5.44-.13-.77-.72-1.93-.84-2.71A14.59,14.59,0,0,0,28.86,50a17.6,17.6,0,0,1-.62-2.72c-.12-.68-.06-1.92-.63-2.51h-.84c0,1.23.42,1.93.42,3.14v2.92c0,2.21.42,3.88.42,6.07,0,14.63.83,28.81.83,43.5H28c.21-1.11-.79-2.7-1.26-3.55a23.22,23.22,0,0,0-2.51-3.35c-.9-1.14-1.48-2.5-2.72-3.56-1-.88-2.42-1.25-3.13-2.51H18c-.29,1.17,1.13,2.34,1.67,3.14a28.2,28.2,0,0,1,2.09,3.35A25.77,25.77,0,0,1,23,97.25c.17.53.68,1.15.83,1.68s-.1.9.42,1.46c.22,1.46.84,2.61.84,4.19h.42c0,2.51.83,4.55.83,7.11v.41c.63.63.42,1.69.42,2.51,0,1.46.42,2.46.42,4v4h-.42c.38-1.79-1.67-3.22-1.25-5h-.84c0,1.87.42,3.24.42,5v1.68H23.42v.41h-.83c-.42-.82-1.3-.83-1.67-1.67h-.84a1.89,1.89,0,0,0,.42,1.67,3.71,3.71,0,0,0,2.51,2.1h.83l1.68.83V128h3.34v-.42h.42V128h6.28v-.42h3.76l1.26-.83H41v.41H43.5v-.41c-.23-1,.51-1.24.42-2.1,0-1.71.42-3,.42-4.6H43.5a13.07,13.07,0,0,1-.83,2.3c-.17.5-.25.78-.42,1.26-.31.82-.52.16-.42,1H41v-.41H38.48v-1.68h-.41v-8c.68-.74.41-2,.41-2.92h.42a3.34,3.34,0,0,1,.42-1.89A15.1,15.1,0,0,1,39.74,108.13Zm-10,4H31c1,1,.08,1.63-.41,2.51h-.42C29.63,113.73,28.7,113.1,29.7,112.1Zm5,2.51h-.84c-.49-.88-1.41-1.51-.42-2.51h.42v-.41h.84C35.6,113.29,35.59,113.05,34.72,114.61Z" transform="translate(-17.95)" style="fill:#fff"/><path d="M105.41,1.25H105L103.32,0H95.37a10.81,10.81,0,0,0-2.09,1.25h-.84a32.77,32.77,0,0,0-8.78,9c-1,1.51-2,2.74-2.93,4.18-1.06,1.59-2,3-2.93,4.6C74.64,24.28,73,30,71.11,35.76a24.74,24.74,0,0,0-1,4.4c-.19,1.33-.86,2.67-1,4a50.63,50.63,0,0,1-1.67,8.37c-.87,2.6-.85,5.6-1.26,8.36a12.57,12.57,0,0,0-.42,2.3,7.36,7.36,0,0,1,0,1c-.06.4-.37.54-.42.84-.1.68.11,1.41,0,2.09a10.46,10.46,0,0,0-.41,2.09c0,2.91-.84,5.52-.84,8.36s-.42,5.26-.42,8.16v1.67h-.42v2.93h-.41c-.15-1.39-1.19-2.6-1.89-3.76A36.55,36.55,0,0,0,58.56,83,20.38,20.38,0,0,0,51.45,77H50.2v-.42H48.1v-.42H41.41v.42h.42V77h2.51a35.89,35.89,0,0,1,4.18,2.3,16.87,16.87,0,0,1,4,3.14c1,1.3,2.22,2.58,3.13,4,.63.94,1.95,2.69,1.68,4a42.42,42.42,0,0,1,2.09,6.28,23.42,23.42,0,0,1,1.25,6.27c0,1.08.65,1.94.42,2.93v8.78c0,.45.25,2,0,2.31-.61.87-1-.08-1.25,1.25-.14.74.09,1.55,0,2.3a4.39,4.39,0,0,1-.84,2.09h-.42c-.26,1,.47,1.57,1.26,2.09v1.26h2.51v.42h1.25v-.84H74v-.42h2.09v-.42H77.8v1.26h2.1a1.38,1.38,0,0,0,.41-1.26h.42c.12-.75.55-1.26.42-2.09.59-.61.23-1.18.42-1.88s1.25-1.15.42-1.88h-.84c.29,1.7-1.86,2.32-1.67,3.76h-.84a4.49,4.49,0,0,1-.63-2.09,11.76,11.76,0,0,1-.21-2.09c0-1.59-.41-2.68-.41-4.18V102.9c0-2.28.41-4.07.41-6.27a20.35,20.35,0,0,1,.42-3.14c.15-1-.37-2.29.42-3.14,0-.94-.28-2.18.42-2.93V85.75h.42a21.8,21.8,0,0,1,1.25-6.69A61.34,61.34,0,0,1,83,72.37c.52-1.12.54-2.45,1-3.56s1.1-2.31,1.67-3.35a28.84,28.84,0,0,1,2.51-3.34c.82-1,2.34-1.66,2.09-3.14H89.1c-.53,1.13-2.44,1.86-3.35,2.72a29.91,29.91,0,0,0-2.93,3.35c-1.63,2.06-2.65,4.69-4,6.9a19,19,0,0,0-1,1.88c-.23.51-.19,1.17-.41,1.67a28.92,28.92,0,0,0-1.68,3.56c-.34,1.12-.88,2.23-1.25,3.35-.31.92-1,2.28-.84,3.34H73.2V80.94c0-1.73.42-3,.42-4.6s.42-3,.42-4.6a32.7,32.7,0,0,1,.42-5c.4-2.74.84-5.55,1.25-8.37.2-1.34.65-2.8.84-4.18A22.59,22.59,0,0,1,77.39,50c.45-1.35.38-2.84.83-4.19a25.36,25.36,0,0,0,.84-4.18,20,20,0,0,1,.84-2.51c.21-.64.23-1.24.41-1.88.37-1.29.83-2.68,1.26-4,.51-1.54,1.16-3.07,1.67-4.6.41-1.23.43-2.53.84-3.76.52-1.56,1.15-3,1.67-4.6a29.07,29.07,0,0,1,1.67-4c1.52-2.83,3.14-5.58,4.82-8.36a22.64,22.64,0,0,1,3.55-4.39A10.18,10.18,0,0,1,100,1.25h.84c3.51,1.32,7,3,8.78,6.28H110C110,5.14,107.46,2.61,105.41,1.25ZM65.25,102.9h1.68c1,1.11.12,1.95-.42,2.93h-.84C64.06,105.2,64.72,104,65.25,102.9Zm6.28,2.93H69.86c-.08-.58-.48-.92-.42-1.46s.52-.9.83-1.47h.84C71.65,103.88,72.54,104.74,71.53,105.83ZM73.2,87.42h-.42V86.17h.42Z" transform="translate(-17.95)" style="fill:#fff"/></svg>